<?xml version="1.0" encoding="UTF-8" standalone="no"?>
<!-- Created with Inkscape (http://www.inkscape.org/) -->

<svg
   xmlns:dc="http://purl.org/dc/elements/1.1/"
   xmlns:cc="http://creativecommons.org/ns#"
   xmlns:rdf="http://www.w3.org/1999/02/22-rdf-syntax-ns#"
   xmlns:svg="http://www.w3.org/2000/svg"
   xmlns="http://www.w3.org/2000/svg"
   xmlns:sodipodi="http://sodipodi.sourceforge.net/DTD/sodipodi-0.dtd"
   xmlns:inkscape="http://www.inkscape.org/namespaces/inkscape"
   width="229.44443"
   height="356.63751"
   viewBox="0 0 229.44443 356.63751"
   version="1.1"
   id="svg1299"
   inkscape:version="0.92.3 (2405546, 2018-03-11)"
   sodipodi:docname="alabama-map-outline.svg">
  <defs
     id="defs1293" />
  <sodipodi:namedview
     id="base"
     pagecolor="#ffffff"
     bordercolor="#666666"
     borderopacity="1.0"
     inkscape:pageopacity="0.0"
     inkscape:pageshadow="2"
     inkscape:zoom="0.7"
     inkscape:cx="334.61666"
     inkscape:cy="11.365112"
     inkscape:document-units="px"
     inkscape:current-layer="layer1"
     showgrid="false"
     units="px"
     fit-margin-top="5"
     fit-margin-left="5"
     fit-margin-right="5"
     fit-margin-bottom="5"
     inkscape:showpageshadow="false"
     showborder="true"
     inkscape:window-width="1280"
     inkscape:window-height="737"
     inkscape:window-x="-8"
     inkscape:window-y="-8"
     inkscape:window-maximized="1"
     inkscape:measure-start="0,0"
     inkscape:measure-end="0,0" />
  <metadata
     id="metadata1296">
    <rdf:RDF>
      <cc:Work
         rdf:about="">
        <dc:format>image/svg+xml</dc:format>
        <dc:type
           rdf:resource="http://purl.org/dc/dcmitype/StillImage" />
        <dc:title></dc:title>
      </cc:Work>
    </rdf:RDF>
  </metadata>
  <g
     inkscape:label="Layer 1"
     inkscape:groupmode="layer"
     id="layer1"
     transform="translate(36.353059,-38.468425)">
    <path
       inkscape:connector-curvature="0"
       id="path1318"
       d="m 10.616165,389.22624 c -1.1460042,-0.27727 -2.417824,-1.10631 -2.748098,-1.79135 -0.1267374,-0.26279 -0.4378826,-0.61381 -0.691523,-0.77998 -0.5601984,-0.36707 -0.5679067,-0.54084 -0.07661,-1.72306 0.3586007,-0.86288 0.3649376,-0.96328 0.093871,-1.48728 -0.1598405,-0.30904 -0.7340841,-1.08623 -1.2761468,-1.72703 -1.905507,-2.25269 -2.6679415,-3.53238 -3.7033581,-6.2161 -0.8989846,-2.33005 -1.9989758,-4.12613 -4.0677755,-6.64187 -0.9514766,-1.15702 -2.1665246,-2.84743 -2.7000751,-3.75644 -1.7660012,-3.00866 -4.114238,-4.92767 -6.0298175,-4.92767 -1.272506,0 -2.905527,0.85701 -4.07844,2.14035 -1.320008,1.44428 -1.721548,2.79288 -1.641368,5.51253 0.105221,3.56792 -0.02128,9.32712 -0.222736,10.07175 -0.251536,0.93419 -1.106423,1.89686 -2.466179,2.77716 -0.897755,0.58124 -1.253873,0.70526 -2.028461,0.70651 -0.516762,0 -1.666479,0.0849 -2.554918,0.18656 -1.55024,0.17758 -1.652741,0.16623 -2.54189,-0.28442 -1.042297,-0.52816 -2.316008,-1.71566 -2.577262,-2.40281 -0.170481,-0.44812 -0.354723,-7.36125 -0.732429,-27.46699 -0.104748,-5.57831 -0.271422,-14.12557 -0.370258,-18.99392 -0.09884,-4.86833 -0.265912,-13.20812 -0.371298,-18.53289 -0.105457,-5.32475 -0.313723,-15.69762 -0.463018,-23.05085 -0.382458,-18.83642 -0.362998,-20.98368 0.283434,-31.26828 0.305612,-4.86213 0.678612,-10.41689 0.8289,-12.34397 0.150383,-1.92704 0.647662,-9.56148 1.105264,-16.96541 0.457603,-7.40395 0.9982,-15.70225 1.201311,-18.4407 0.20311,-2.73843 0.78336,-11.65911 1.289435,-19.82375 0.506098,-8.16461 1.003117,-15.79905 1.104531,-16.96541 0.101437,-1.16639 0.642247,-9.46469 1.201901,-18.4407 0.559655,-8.97602 1.098856,-17.19132 1.198189,-18.2563 0.09931,-1.06495 0.554831,-8.03551 1.012221,-15.49017 0.45739,-7.45465 0.997632,-15.79444 1.200554,-18.5329 0.202874,-2.73842 0.783738,-11.659108 1.290641,-19.823719 0.506926,-8.164634 1.014349,-15.840549 1.127608,-17.057654 0.252624,-2.714924 0.231013,-9.250439 -0.03689,-11.236315 -0.214933,-1.591407 -0.528443,-2.290141 -1.66071,-3.700639 -0.407096,-0.507116 -1.191544,-1.600533 -1.743183,-2.429812 -0.729332,-1.09635 -1.305633,-1.720036 -2.112047,-2.285696 -1.10952,-0.7783 -1.238386,-0.972544 -0.948497,-1.429769 0.166934,-0.263358 0.730821,-0.281187 15.2374587,-0.48172 4.1583833,-0.05746 9.46929713,-0.145654 11.8020464,-0.196254 2.3327494,-0.05036 7.1872665,-0.136905 10.7877919,-0.192471 3.60055,-0.05533 8.579534,-0.134777 11.064416,-0.176628 2.484881,-0.04162 7.712825,-0.120827 11.617639,-0.175919 3.904813,-0.05509 9.464686,-0.142107 12.355269,-0.193417 18.927954,-0.335689 37.355201,-0.599307 51.633932,-0.738648 5.12189,-0.04989 12.64622,-0.138796 16.72073,-0.197199 7.10683,-0.102147 7.4157,-0.09245 7.59273,0.238413 0.16576,0.309797 1.27809,4.488208 3.62209,13.606683 1.36451,5.308124 3.00774,11.667436 3.76438,14.568139 0.88323,3.385947 2.80215,10.816048 4.35771,16.873247 1.75309,6.82623 4.64767,18.029418 6.24158,24.157288 0.35614,1.36924 1.32013,5.10348 2.1422,8.29833 0.82206,3.19485 1.73391,6.72162 2.02638,7.83729 0.29244,1.11564 0.95774,3.68813 1.47843,5.71662 0.52068,2.02846 1.26843,4.93287 1.66165,6.45422 0.39324,1.52137 1.72025,6.66632 2.94894,11.43323 1.22869,4.76691 2.51397,9.74592 2.8562,11.06441 0.34224,1.31852 1.58708,6.13154 2.76631,10.69561 1.17925,4.56406 2.47814,9.58454 2.88649,11.15663 0.40835,1.57206 1.23333,4.76691 1.83332,7.09966 1.65771,6.44526 2.55182,8.05078 6.69718,12.02561 3.9155,3.75443 4.39705,4.69888 4.44621,8.72015 0.0331,2.70381 0.27769,4.14831 0.96195,5.68001 0.71342,1.59689 4.64479,7.92242 5.51355,8.87122 0.52055,0.56852 1.22132,1.4895 1.55722,2.04665 0.56048,0.92962 0.61158,1.14198 0.62099,2.58045 0.009,1.40497 -0.0452,1.66303 -0.52476,2.48949 -1.72315,2.96992 -1.66515,2.8066 -1.73528,4.88677 -0.0359,1.06495 0.066,3.17102 0.22652,4.68014 0.56585,5.32006 0.37482,7.08769 -1.16048,10.73771 -2.41666,5.74546 -3.51838,13.7137 -2.44494,17.68321 0.47571,1.75902 2.37086,5.71921 4.47622,9.35365 3.34107,5.76759 3.82688,6.68509 4.3038,8.12808 0.6657,2.01417 0.87333,4.86759 0.63255,8.69253 -0.19909,3.16163 -0.52092,5.01729 -1.47339,8.49422 -0.54954,2.00602 -0.60548,2.44561 -0.59825,4.70239 0.007,2.27891 0.0665,2.70785 0.69791,5.07117 1.01189,3.78636 1.31698,5.19754 1.8476,8.54632 0.61806,3.90039 0.61931,4.06659 0.0378,5.05864 -0.64035,1.09264 -2.20471,2.48131 -3.04803,2.70568 -0.37071,0.0986 -3.28794,0.26785 -6.48281,0.37612 -5.46525,0.18514 -7.97881,0.27932 -19.54713,0.7321 -2.58629,0.1012 -6.90142,0.26861 -9.58915,0.37196 -9.85424,0.37886 -19.75431,0.75865 -24.2495,0.93022 -2.5356,0.0967 -6.76773,0.26163 -9.40474,0.36633 -2.63702,0.10475 -6.82767,0.27109 -9.31256,0.36974 -2.48488,0.0986 -7.920287,0.30552 -12.078646,0.45971 -4.158384,0.15416 -9.676759,0.36335 -12.263054,0.46481 -2.586319,0.10144 -6.776954,0.2648 -9.312554,0.36298 -2.5356,0.0981 -6.684762,0.26184 -9.220339,0.36373 -6.924475,0.27823 -13.744629,0.5383 -21.944423,0.83684 -9.295648,0.33843 -11.887358,0.47569 -12.372602,0.65523 -0.690553,0.25546 -2.82537,2.20204 -3.285668,2.9959 -0.308166,0.53147 -0.566819,1.4959 -0.825803,3.07896 -0.785441,4.80103 -0.757422,5.10357 0.670739,7.24224 0.888202,1.33011 1.372784,1.77163 3.554465,3.23878 2.499873,1.68114 6.149793,5.7016 7.462566,8.22018 1.505835,2.88898 0.883071,5.31723 -2.261483,8.818 -0.753355,0.83868 -2.633255,3.10156 -4.17756,5.02863 -2.724973,3.4003 -4.5804,5.28512 -7.020947,7.13211 -2.100295,1.58944 -3.788196,2.26001 -6.896692,2.73987 -2.659855,0.41059 -3.584046,0.42783 -4.969314,0.0927 z"
       style="fill:#ffffff;fill-opacity:1;stroke:#000000;stroke-width:0.93841273;stroke-miterlimit:4;stroke-dasharray:none;stroke-opacity:1"
       sodipodi:nodetypes="cccccccccscccccccccscsccssccscsccccccccccccsccccscccscccsccccscccccccccccccccccccccccccccccscccccccccscc" />
    <text
       xml:space="preserve"
       style="font-style:normal;font-weight:normal;font-size:25.02433968px;line-height:1.25;font-family:sans-serif;letter-spacing:0px;word-spacing:0px;fill:#000000;fill-opacity:1;stroke:none;stroke-width:0.6256085"
       x="35.524929"
       y="387.18994"
       id="text1328"><tspan
         sodipodi:role="line"
         id="tspan1326"
         x="35.524929"
         y="387.18994"
         style="font-size:10.84388065px;fill:#646464;fill-opacity:1;stroke-width:0.6256085"></tspan></text>
  </g>
</svg>
